<?xml version="1.0" standalone="no"?><svg xmlns="http://www.w3.org/2000/svg" viewBox="0 0 1440 320"><path fill="#ff9800" fill-opacity="0.7" d="M0,224L6.2,218.7C12.3,213,25,203,37,170.7C49.2,139,62,85,74,96C86.2,107,98,181,111,181.3C123.1,181,135,107,148,106.7C160,107,172,181,185,181.3C196.9,181,209,107,222,80C233.8,53,246,75,258,101.3C270.8,128,283,160,295,170.7C307.7,181,320,171,332,176C344.6,181,357,203,369,208C381.5,213,394,203,406,170.7C418.5,139,431,85,443,69.3C455.4,53,468,75,480,106.7C492.3,139,505,181,517,170.7C529.2,160,542,96,554,101.3C566.2,107,578,181,591,181.3C603.1,181,615,107,628,96C640,85,652,139,665,170.7C676.9,203,689,213,702,218.7C713.8,224,726,224,738,229.3C750.8,235,763,245,775,208C787.7,171,800,85,812,42.7C824.6,0,837,0,849,32C861.5,64,874,128,886,138.7C898.5,149,911,107,923,96C935.4,85,948,107,960,117.3C972.3,128,985,128,997,112C1009.2,96,1022,64,1034,53.3C1046.2,43,1058,53,1071,69.3C1083.1,85,1095,107,1108,138.7C1120,171,1132,213,1145,218.7C1156.9,224,1169,192,1182,197.3C1193.8,203,1206,245,1218,240C1230.8,235,1243,181,1255,165.3C1267.7,149,1280,171,1292,160C1304.6,149,1317,107,1329,96C1341.5,85,1354,107,1366,101.3C1378.5,96,1391,64,1403,74.7C1415.4,85,1428,139,1434,165.3L1440,192L1440,0L1433.8,0C1427.7,0,1415,0,1403,0C1390.8,0,1378,0,1366,0C1353.8,0,1342,0,1329,0C1316.9,0,1305,0,1292,0C1280,0,1268,0,1255,0C1243.1,0,1231,0,1218,0C1206.2,0,1194,0,1182,0C1169.2,0,1157,0,1145,0C1132.3,0,1120,0,1108,0C1095.4,0,1083,0,1071,0C1058.5,0,1046,0,1034,0C1021.5,0,1009,0,997,0C984.6,0,972,0,960,0C947.7,0,935,0,923,0C910.8,0,898,0,886,0C873.8,0,862,0,849,0C836.9,0,825,0,812,0C800,0,788,0,775,0C763.1,0,751,0,738,0C726.2,0,714,0,702,0C689.2,0,677,0,665,0C652.3,0,640,0,628,0C615.4,0,603,0,591,0C578.5,0,566,0,554,0C541.5,0,529,0,517,0C504.6,0,492,0,480,0C467.7,0,455,0,443,0C430.8,0,418,0,406,0C393.8,0,382,0,369,0C356.9,0,345,0,332,0C320,0,308,0,295,0C283.1,0,271,0,258,0C246.2,0,234,0,222,0C209.2,0,197,0,185,0C172.3,0,160,0,148,0C135.4,0,123,0,111,0C98.5,0,86,0,74,0C61.5,0,49,0,37,0C24.6,0,12,0,6,0L0,0Z"></path></svg>