<?xml version="1.0" standalone="no"?><svg xmlns="http://www.w3.org/2000/svg" viewBox="0 0 1440 320"><path fill="#ff9800" fill-opacity="0.7" d="M0,224L6.2,218.7C12.3,213,25,203,37,170.7C49.2,139,62,85,74,96C86.2,107,98,181,111,181.3C123.1,181,135,107,148,106.7C160,107,172,181,185,181.3C196.9,181,209,107,222,80C233.8,53,246,75,258,101.3C270.8,128,283,160,295,170.7C307.7,181,320,171,332,176C344.6,181,357,203,369,208C381.5,213,394,203,406,170.7C418.5,139,431,85,443,69.3C455.4,53,468,75,480,106.7C492.3,139,505,181,517,170.7C529.2,160,542,96,554,101.3C566.2,107,578,181,591,181.3C603.1,181,615,107,628,96C640,85,652,139,665,170.7C676.9,203,689,213,702,218.7C713.8,224,726,224,738,229.3C750.8,235,763,245,775,208C787.7,171,800,85,812,42.7C824.6,0,837,0,849,32C861.5,64,874,128,886,138.7C898.5,149,911,107,923,96C935.4,85,948,107,960,117.3C972.3,128,985,128,997,112C1009.2,96,1022,64,1034,53.3C1046.2,43,1058,53,1071,69.3C1083.1,85,1095,107,1108,138.7C1120,171,1132,213,1145,218.7C1156.9,224,1169,192,1182,197.3C1193.8,203,1206,245,1218,240C1230.8,235,1243,181,1255,165.3C1267.7,149,1280,171,1292,160C1304.6,149,1317,107,1329,96C1341.5,85,1354,107,1366,101.3C1378.5,96,1391,64,1403,74.7C1415.4,85,1428,139,1434,165.3L1440,192L1440,320L1433.8,320C1427.7,320,1415,320,1403,320C1390.8,320,1378,320,1366,320C1353.8,320,1342,320,1329,320C1316.9,320,1305,320,1292,320C1280,320,1268,320,1255,320C1243.1,320,1231,320,1218,320C1206.2,320,1194,320,1182,320C1169.2,320,1157,320,1145,320C1132.3,320,1120,320,1108,320C1095.4,320,1083,320,1071,320C1058.5,320,1046,320,1034,320C1021.5,320,1009,320,997,320C984.6,320,972,320,960,320C947.7,320,935,320,923,320C910.8,320,898,320,886,320C873.8,320,862,320,849,320C836.9,320,825,320,812,320C800,320,788,320,775,320C763.1,320,751,320,738,320C726.2,320,714,320,702,320C689.2,320,677,320,665,320C652.3,320,640,320,628,320C615.4,320,603,320,591,320C578.5,320,566,320,554,320C541.5,320,529,320,517,320C504.6,320,492,320,480,320C467.7,320,455,320,443,320C430.8,320,418,320,406,320C393.8,320,382,320,369,320C356.9,320,345,320,332,320C320,320,308,320,295,320C283.1,320,271,320,258,320C246.2,320,234,320,222,320C209.2,320,197,320,185,320C172.3,320,160,320,148,320C135.4,320,123,320,111,320C98.5,320,86,320,74,320C61.5,320,49,320,37,320C24.6,320,12,320,6,320L0,320Z"></path></svg>